<svg version="1.2" baseProfile="tiny-ps" xmlns="http://www.w3.org/2000/svg" viewBox="0 0 1559 514" width="1559" height="514">
	<title>Google_2015_logo-svg</title>
	<style>
		tspan { white-space:pre }
		.shp0 { fill: #ea4335 } 
		.shp1 { fill: #fbbc05 } 
		.shp2 { fill: #4285f4 } 
		.shp3 { fill: #34a853 } 
	</style>
	<path id="Layer" fill-rule="evenodd" class="shp0" d="M666.97 270.82C666.97 344.67 609.23 399.08 538.38 399.08C467.52 399.08 409.78 344.67 409.78 270.82C409.78 196.46 467.52 142.57 538.38 142.57C609.23 142.57 666.97 196.46 666.97 270.82ZM610.68 270.82C610.68 224.68 577.21 193.11 538.38 193.11C499.54 193.11 466.07 224.68 466.07 270.82C466.07 316.51 499.54 348.54 538.38 348.54C577.21 348.54 610.68 316.45 610.68 270.82Z" />
	<path id="Layer" fill-rule="evenodd" class="shp1" d="M944.38 270.82C944.38 344.67 886.64 399.08 815.79 399.08C744.93 399.08 687.19 344.67 687.19 270.82C687.19 196.52 744.93 142.57 815.79 142.57C886.64 142.57 944.38 196.46 944.38 270.82ZM888.09 270.82C888.09 224.68 854.62 193.11 815.79 193.11C776.95 193.11 743.49 224.68 743.49 270.82C743.49 316.51 776.95 348.54 815.79 348.54C854.62 348.54 888.09 316.45 888.09 270.82Z" />
	<path id="Layer" fill-rule="evenodd" class="shp2" d="M1210.23 380.58C1210.23 475.3 1154.4 513.98 1088.4 513.98C1026.27 513.98 988.88 472.41 974.78 438.4L1023.79 417.99C1032.51 438.87 1053.9 463.5 1088.34 463.5C1130.59 463.5 1156.77 437.42 1156.77 388.33L1156.77 369.88L1154.81 369.88C1142.21 385.43 1117.93 399.02 1087.3 399.02C1023.21 399.02 964.49 343.16 964.49 271.29C964.49 198.89 1023.21 142.57 1087.3 142.57C1117.88 142.57 1142.15 156.15 1154.81 171.25L1156.77 171.25L1156.77 150.37L1210.23 150.37L1210.23 380.58ZM1160.76 271.29C1160.76 226.12 1130.65 193.11 1092.33 193.11C1053.49 193.11 1020.96 226.12 1020.96 271.29C1020.96 315.99 1053.49 348.54 1092.33 348.54C1130.65 348.54 1160.76 315.99 1160.76 271.29Z" />
	<path id="Layer" class="shp3" d="M1298.37 15.35L1298.37 391.22L1243.46 391.22L1243.46 15.35L1298.37 15.35Z" />
	<path id="Layer" fill-rule="evenodd" class="shp0" d="M1512.32 313.04L1556.01 342.18C1541.91 363.06 1507.93 399.02 1449.21 399.02C1376.39 399.02 1322.01 342.7 1322.01 270.77C1322.01 194.49 1376.85 142.51 1442.91 142.51C1509.43 142.51 1541.97 195.48 1552.6 224.1L1558.44 238.67L1387.08 309.68C1400.2 335.42 1420.6 348.54 1449.21 348.54C1477.88 348.54 1497.76 334.43 1512.32 313.04ZM1492.38 219.3C1486.08 203.28 1467.13 192.12 1444.82 192.12C1416.21 192.12 1376.39 217.39 1377.83 266.89L1492.38 219.3Z" />
	<path id="Layer" class="shp2" d="M201.96 237.46L201.96 183.04L385.22 183.04C387.01 192.53 387.94 203.75 387.94 215.89C387.94 256.71 376.78 307.2 340.83 343.16C305.87 379.59 261.19 399.02 202.01 399.02C92.32 399.02 0.08 309.62 0.08 199.87C0.08 90.12 92.32 0.72 202.01 0.72C262.7 0.72 305.93 24.54 338.41 55.59L300.03 93.99C276.74 72.13 245.19 55.13 201.96 55.13C121.85 55.13 59.2 119.72 59.2 199.87C59.2 280.02 121.85 344.61 201.96 344.61C253.91 344.61 283.5 323.73 302.46 304.77C317.83 289.39 327.95 267.41 331.93 237.4L201.96 237.46L201.96 237.46Z" />
</svg>